<svg width="14" height="16" viewBox="0 0 14 16" fill="none" xmlns="http://www.w3.org/2000/svg">
<g clip-path="url(#clip0_3048_4156)">
<path d="M4.78524 3.88188C4.78524 2.81598 5.64359 1.94938 6.69933 1.94938C7.75508 1.94938 8.61343 2.81598 8.61343 3.88188V5.33125H4.78524V3.88188ZM3.34967 5.33125H1.43557C0.643016 5.33125 0 5.98045 0 6.78062V13.0612C0 14.6616 1.28603 15.96 2.87114 15.96H10.5275C12.1126 15.96 13.3987 14.6616 13.3987 13.0612V6.78062C13.3987 5.98045 12.7557 5.33125 11.9631 5.33125H10.049V3.88188C10.049 2.01279 8.55062 0.5 6.69933 0.5C4.84804 0.5 3.34967 2.01279 3.34967 3.88188V5.33125ZM4.06745 6.78062C4.25782 6.78062 4.44039 6.85698 4.575 6.99288C4.70962 7.12879 4.78524 7.31311 4.78524 7.50531C4.78524 7.69751 4.70962 7.88184 4.575 8.01774C4.44039 8.15365 4.25782 8.23 4.06745 8.23C3.87708 8.23 3.69451 8.15365 3.5599 8.01774C3.42529 7.88184 3.34967 7.69751 3.34967 7.50531C3.34967 7.31311 3.42529 7.12879 3.5599 6.99288C3.69451 6.85698 3.87708 6.78062 4.06745 6.78062ZM8.61343 7.50531C8.61343 7.31311 8.68905 7.12879 8.82366 6.99288C8.95828 6.85698 9.14085 6.78062 9.33122 6.78062C9.52158 6.78062 9.70416 6.85698 9.83877 6.99288C9.97338 7.12879 10.049 7.31311 10.049 7.50531C10.049 7.69751 9.97338 7.88184 9.83877 8.01774C9.70416 8.15365 9.52158 8.23 9.33122 8.23C9.14085 8.23 8.95828 8.15365 8.82366 8.01774C8.68905 7.88184 8.61343 7.69751 8.61343 7.50531Z" fill="#020714"/>
</g>
<defs>
<clipPath id="clip0_3048_4156">
<rect width="13.3987" height="15.46" fill="white" transform="translate(0 0.5)"/>
</clipPath>
</defs>
</svg>
