<svg width="240" height="174" viewBox="0 0 240 174" fill="none" xmlns="http://www.w3.org/2000/svg">
<path opacity="0.05" d="M112.418 69.7959C112.418 88.898 109.516 105.551 103.714 119.755C97.9121 133.469 90.4176 144.98 81.2308 154.286C72.0439 163.102 61.4066 169.714 49.3187 174.122C37.7143 178.041 26.1099 180 14.5055 180V154.286C27.0769 154.286 38.6813 150.122 49.3187 141.796C60.4396 132.98 66.967 121.224 68.9011 106.531C67.4505 107.51 65.7582 108.245 63.8242 108.735C59.956 109.714 55.6044 110.204 50.7692 110.204C36.2637 110.204 24.1758 104.816 14.5055 94.0408C4.83516 82.7755 0 69.7959 0 55.102C0 40.4082 4.83516 27.6735 14.5055 16.898C24.6593 5.63265 37.956 0 54.3956 0C72.7692 0 87.033 7.10204 97.1868 21.3061C107.341 35.0204 112.418 51.1837 112.418 69.7959ZM239.341 69.7959C239.341 88.898 236.44 105.551 230.637 119.755C224.835 133.469 217.341 144.98 208.154 154.286C198.967 163.102 188.33 169.714 176.242 174.122C164.637 178.041 153.033 180 141.429 180V154.286C154 154.286 165.604 150.122 176.242 141.796C187.363 132.98 193.89 121.224 195.824 106.531C194.374 107.51 192.681 108.245 190.747 108.735C186.879 109.714 182.527 110.204 177.692 110.204C163.187 110.204 151.099 104.816 141.429 94.0408C131.758 82.7755 126.923 69.7959 126.923 55.102C126.923 40.4082 131.758 27.6735 141.429 16.898C151.582 5.63265 164.879 0 181.319 0C199.692 0 213.956 7.10204 224.11 21.3061C234.264 35.0204 239.341 51.1837 239.341 69.7959Z" fill="#020714"/>
</svg>
