<svg width="20" height="20" viewBox="0 0 20 20" fill="none" xmlns="http://www.w3.org/2000/svg">
<path d="M18.9851 7.49973C18.8882 7.20075 18.7048 6.93724 18.4581 6.74254C18.2114 6.54784 17.9125 6.43072 17.5992 6.40598L13.1781 6.04895L11.4718 1.92317C11.3519 1.63158 11.148 1.3822 10.8861 1.2067C10.6242 1.0312 10.316 0.9375 10.0007 0.9375C9.68543 0.9375 9.37726 1.0312 9.11533 1.2067C8.8534 1.3822 8.64953 1.63158 8.52962 1.92317L6.82494 6.04973L2.40384 6.40598C2.08995 6.43187 1.79072 6.54995 1.54374 6.7454C1.29676 6.94084 1.11306 7.20492 1.01572 7.50446C0.918378 7.80399 0.911742 8.12562 0.996644 8.42891C1.08155 8.73221 1.2542 9.00364 1.4929 9.20911L4.86634 12.1185L3.83509 16.47C3.75988 16.7768 3.77767 17.0991 3.88621 17.3958C3.99474 17.6924 4.18911 17.9501 4.44456 18.1359C4.70001 18.3217 5.00498 18.4273 5.32064 18.4392C5.63631 18.4512 5.94838 18.3689 6.21712 18.2029L10.0007 15.874L13.7843 18.2029C14.053 18.3678 14.3645 18.4493 14.6795 18.437C14.9945 18.4247 15.2988 18.3193 15.5539 18.134C15.8089 17.9487 16.0033 17.6919 16.1123 17.3962C16.2213 17.1004 16.2401 16.7789 16.1663 16.4724L15.1351 12.1208L18.5085 9.21145C18.7487 9.00549 18.9222 8.73281 19.007 8.42804C19.0919 8.12327 19.0842 7.80016 18.9851 7.49973ZM13.4796 11.07C13.3495 11.1822 13.2528 11.3279 13.1999 11.4913C13.147 11.6547 13.14 11.8295 13.1796 11.9966L14.1867 16.2497L10.4921 13.9779C10.3444 13.8869 10.1742 13.8387 10.0007 13.8387C9.8272 13.8387 9.65708 13.8869 9.50931 13.9779L5.81478 16.2497L6.82181 11.9997C6.86148 11.8326 6.85447 11.6578 6.80157 11.4944C6.74866 11.331 6.65189 11.1853 6.52181 11.0732L3.21947 8.22161L7.54759 7.87239C7.71983 7.85855 7.88489 7.79738 8.02455 7.69564C8.16421 7.59389 8.27303 7.45553 8.339 7.29583L10.0007 3.27239L11.6624 7.29583C11.7284 7.45553 11.8372 7.59389 11.9769 7.69564C12.1165 7.79738 12.2816 7.85855 12.4538 7.87239L16.782 8.22161L13.4796 11.07Z" fill="#D9651D"/>
</svg>
