<svg width="18" height="18" viewBox="0 0 18 18" fill="none" xmlns="http://www.w3.org/2000/svg">
<path d="M17.3048 7.97274L13.7892 11.0063L14.8603 15.5431C14.9194 15.7893 14.9042 16.0476 14.8166 16.2852C14.729 16.5229 14.5729 16.7292 14.3681 16.8782C14.1632 17.0272 13.9189 17.1121 13.6658 17.1222C13.4127 17.1324 13.1623 17.0673 12.9462 16.9352L9.00093 14.5071L5.05327 16.9352C4.8372 17.0666 4.5871 17.131 4.33447 17.1205C4.08184 17.11 3.83798 17.0249 3.63359 16.8761C3.42919 16.7272 3.27341 16.5212 3.18585 16.284C3.0983 16.0468 3.08288 15.789 3.14155 15.5431L4.21655 11.0063L0.700928 7.97274C0.509754 7.80752 0.371494 7.58963 0.303414 7.34629C0.235334 7.10296 0.240452 6.84496 0.318127 6.60452C0.395803 6.36407 0.542594 6.15184 0.740169 5.99432C0.937744 5.83681 1.17735 5.74099 1.42905 5.71884L6.03843 5.34696L7.81655 1.04384C7.9128 0.809319 8.07661 0.608718 8.28716 0.467538C8.4977 0.326358 8.74548 0.250977 8.99897 0.250977C9.25247 0.250977 9.50025 0.326358 9.71079 0.467538C9.92134 0.608718 10.0852 0.809319 10.1814 1.04384L11.9587 5.34696L16.5681 5.71884C16.8203 5.74017 17.0606 5.83545 17.2589 5.99275C17.4572 6.15005 17.6047 6.36236 17.6828 6.6031C17.761 6.84383 17.7664 7.10228 17.6983 7.34606C17.6302 7.58984 17.4917 7.80811 17.3001 7.97352L17.3048 7.97274Z" fill="#D9651D"/>
</svg>
