<svg width="20" height="21" viewBox="0 0 20 21" fill="none" xmlns="http://www.w3.org/2000/svg">
<path d="M11.2711 4.08812C11.2923 4.0088 11.329 3.93444 11.3789 3.86929C11.4289 3.80413 11.4912 3.74946 11.5623 3.7084C11.6334 3.66733 11.7119 3.64068 11.7933 3.62996C11.8747 3.61925 11.9574 3.62467 12.0367 3.64594C13.1954 3.94824 14.2525 4.55394 15.0992 5.40065C15.9459 6.24736 16.5516 7.30448 16.8539 8.46312C16.8752 8.54243 16.8806 8.62515 16.8699 8.70655C16.8592 8.78796 16.8325 8.86645 16.7915 8.93755C16.7504 9.00866 16.6957 9.07097 16.6306 9.12093C16.5654 9.1709 16.491 9.20753 16.4117 9.22875C16.3589 9.24262 16.3046 9.2497 16.25 9.24984C16.1123 9.24984 15.9784 9.20434 15.8692 9.12042C15.76 9.0365 15.6816 8.91886 15.6461 8.78578C15.3995 7.83994 14.9052 6.97696 14.2141 6.2858C13.5229 5.59464 12.6599 5.1003 11.7141 4.85375C11.6347 4.83262 11.5602 4.79604 11.495 4.74611C11.4298 4.69618 11.375 4.63388 11.3339 4.56277C11.2927 4.49166 11.266 4.41314 11.2552 4.3317C11.2445 4.25025 11.2499 4.16748 11.2711 4.08812ZM11.0891 7.35375C12.1664 7.64125 12.8586 8.33344 13.1461 9.41078C13.1816 9.54386 13.26 9.6615 13.3692 9.74542C13.4784 9.82934 13.6123 9.87484 13.75 9.87484C13.8046 9.8747 13.8589 9.86762 13.9117 9.85375C13.991 9.83253 14.0654 9.7959 14.1306 9.74593C14.1957 9.69597 14.2504 9.63366 14.2915 9.56255C14.3325 9.49145 14.3592 9.41296 14.3699 9.33155C14.3806 9.25015 14.3752 9.16743 14.3539 9.08812C13.9539 7.59125 12.9086 6.54594 11.4117 6.14594C11.2516 6.10315 11.081 6.12574 10.9374 6.20874C10.7939 6.29174 10.6893 6.42835 10.6465 6.58851C10.6037 6.74868 10.6263 6.91928 10.7093 7.06279C10.7923 7.2063 10.9289 7.31096 11.0891 7.35375ZM17.4906 14.803C17.3513 15.8616 16.8314 16.8333 16.0281 17.5366C15.2247 18.2399 14.1927 18.6268 13.125 18.6248C6.92188 18.6248 1.87501 13.578 1.87501 7.37484C1.87309 6.3071 2.25992 5.27517 2.96324 4.47179C3.66655 3.66841 4.63826 3.14852 5.69688 3.00922C5.96458 2.97653 6.23567 3.0313 6.46968 3.16534C6.7037 3.29939 6.88809 3.50552 6.99532 3.75297L8.64532 7.43656V7.44594C8.72742 7.63535 8.76133 7.84215 8.74401 8.04787C8.7267 8.25359 8.6587 8.45181 8.5461 8.62484C8.53204 8.64594 8.51719 8.66547 8.50157 8.685L6.87501 10.6131C7.46016 11.8022 8.70391 13.035 9.9086 13.6217L11.8102 12.0037C11.8288 11.9881 11.8484 11.9734 11.8688 11.96C12.0416 11.8447 12.2405 11.7743 12.4475 11.7552C12.6544 11.7361 12.8628 11.7689 13.0539 11.8506L13.0641 11.8553L16.7445 13.5045C16.9924 13.6114 17.1991 13.7956 17.3335 14.0297C17.468 14.2637 17.5231 14.535 17.4906 14.803ZM16.25 14.6467C16.25 14.6467 16.2445 14.6467 16.2414 14.6467L12.5695 13.0022L10.6672 14.6202C10.6487 14.6358 10.6294 14.6504 10.6094 14.6639C10.4295 14.7839 10.2216 14.8552 10.0059 14.8708C9.79023 14.8864 9.5742 14.8458 9.37891 14.753C7.91563 14.0459 6.45704 12.5983 5.74923 11.1506C5.6555 10.9568 5.61344 10.742 5.62713 10.5271C5.64082 10.3122 5.70978 10.1045 5.82735 9.92406C5.8406 9.90288 5.85549 9.88276 5.87188 9.8639L7.50001 7.93344L5.85938 4.26156C5.85907 4.25844 5.85907 4.2553 5.85938 4.25219C5.10177 4.35101 4.40616 4.72263 3.90283 5.29743C3.3995 5.87224 3.12296 6.61081 3.12501 7.37484C3.1279 10.0261 4.1824 12.568 6.05714 14.4427C7.93187 16.3174 10.4737 17.3719 13.125 17.3748C13.8886 17.3775 14.6269 17.1019 15.2021 16.5997C15.7772 16.0974 16.1497 15.4029 16.25 14.6459V14.6467Z" fill="white"/>
</svg>
