<svg width="12" height="12" viewBox="0 0 12 12" fill="none" xmlns="http://www.w3.org/2000/svg">
<g clip-path="url(#clip0_327_1603)">
<path d="M11.1363 1.875V3C11.1363 4.03594 8.80793 4.875 5.93633 4.875C3.06472 4.875 0.736328 4.03594 0.736328 3V1.875C0.736328 0.839062 3.06472 0 5.93633 0C8.80793 0 11.1363 0.839062 11.1363 1.875ZM9.86419 5.03203C10.347 4.85859 10.7904 4.63594 11.1363 4.36172V6.75C11.1363 7.78594 8.80793 8.625 5.93633 8.625C3.06472 8.625 0.736328 7.78594 0.736328 6.75V4.36172C1.08222 4.63828 1.52561 4.85859 2.00847 5.03203C3.05079 5.40703 4.43901 5.625 5.93633 5.625C7.43365 5.625 8.82186 5.40703 9.86419 5.03203ZM0.736328 8.11172C1.08222 8.38828 1.52561 8.60859 2.00847 8.78203C3.05079 9.15703 4.43901 9.375 5.93633 9.375C7.43365 9.375 8.82186 9.15703 9.86419 8.78203C10.347 8.60859 10.7904 8.38594 11.1363 8.11172V10.125C11.1363 11.1609 8.80793 12 5.93633 12C3.06472 12 0.736328 11.1609 0.736328 10.125V8.11172Z" fill="white"/>
</g>
<defs>
<clipPath id="clip0_327_1603">
<rect width="10.4" height="12" fill="white" transform="translate(0.736328)"/>
</clipPath>
</defs>
</svg>
