<svg width="13" height="12" viewBox="0 0 13 12" fill="none" xmlns="http://www.w3.org/2000/svg">
<g clip-path="url(#clip0_327_1620)">
<path d="M9.18555 6C9.18555 6.52031 9.15742 7.02187 9.1082 7.5H4.76523C4.71367 7.02187 4.68789 6.52031 4.68789 6C4.68789 5.47969 4.71602 4.97813 4.76523 4.5H9.1082C9.15977 4.97813 9.18555 5.47969 9.18555 6ZM9.86055 4.5H12.7457C12.8699 4.98047 12.9355 5.48203 12.9355 6C12.9355 6.51797 12.8699 7.01953 12.7457 7.5H9.86055C9.90977 7.01719 9.93555 6.51562 9.93555 6C9.93555 5.48438 9.90977 4.98281 9.86055 4.5ZM12.4996 3.75H9.76445C9.53008 2.25234 9.06602 0.998438 8.46836 0.196875C10.3035 0.682031 11.7965 2.01328 12.4973 3.75H12.4996ZM9.00508 3.75H4.86602C5.00898 2.89687 5.2293 2.14219 5.49883 1.53047C5.74492 0.977344 6.01914 0.576563 6.28398 0.323438C6.54648 0.075 6.76445 0 6.93555 0C7.10664 0 7.32461 0.075 7.58711 0.323438C7.85195 0.576563 8.12617 0.977344 8.37227 1.53047C8.64414 2.13984 8.86211 2.89453 9.00508 3.75ZM4.10664 3.75H1.37148C2.07461 2.01328 3.56523 0.682031 5.40273 0.196875C4.80508 0.998438 4.34102 2.25234 4.10664 3.75ZM1.12539 4.5H4.01055C3.96133 4.98281 3.93555 5.48438 3.93555 6C3.93555 6.51562 3.96133 7.01719 4.01055 7.5H1.12539C1.00117 7.01953 0.935547 6.51797 0.935547 6C0.935547 5.48203 1.00117 4.98047 1.12539 4.5ZM5.49883 10.4672C5.22695 9.85781 5.00898 9.10312 4.86602 8.25H9.00508C8.86211 9.10312 8.6418 9.85781 8.37227 10.4672C8.12617 11.0203 7.85195 11.4211 7.58711 11.6742C7.32461 11.925 7.10664 12 6.93555 12C6.76445 12 6.54648 11.925 6.28398 11.6766C6.01914 11.4234 5.74492 11.0227 5.49883 10.4695V10.4672ZM4.10664 8.25C4.34102 9.74766 4.80508 11.0016 5.40273 11.8031C3.56523 11.318 2.07461 9.98672 1.37148 8.25H4.10664ZM12.4996 8.25C11.7965 9.98672 10.3059 11.318 8.4707 11.8031C9.06836 11.0016 9.53008 9.74766 9.7668 8.25H12.502H12.4996Z" fill="white"/>
</g>
<defs>
<clipPath id="clip0_327_1620">
<rect width="12" height="12" fill="white" transform="translate(0.935547)"/>
</clipPath>
</defs>
</svg>
