<svg width="20" height="21" viewBox="0 0 20 21" fill="none" xmlns="http://www.w3.org/2000/svg">
<path d="M17.5 4.25H2.5C2.33424 4.25 2.17527 4.31585 2.05806 4.43306C1.94085 4.55027 1.875 4.70924 1.875 4.875V15.5C1.875 15.8315 2.0067 16.1495 2.24112 16.3839C2.47554 16.6183 2.79348 16.75 3.125 16.75H16.875C17.2065 16.75 17.5245 16.6183 17.7589 16.3839C17.9933 16.1495 18.125 15.8315 18.125 15.5V4.875C18.125 4.70924 18.0592 4.55027 17.9419 4.43306C17.8247 4.31585 17.6658 4.25 17.5 4.25ZM10 10.9023L4.10703 5.5H15.893L10 10.9023ZM7.71172 10.5L3.125 14.7039V6.29609L7.71172 10.5ZM8.63672 11.3477L9.57422 12.2109C9.68953 12.3168 9.84035 12.3755 9.99687 12.3755C10.1534 12.3755 10.3042 12.3168 10.4195 12.2109L11.357 11.3477L15.8883 15.5H4.10703L8.63672 11.3477ZM12.2883 10.5L16.875 6.29531V14.7047L12.2883 10.5Z" fill="white"/>
</svg>
