<svg width="20" height="20" viewBox="0 0 20 20" fill="none" xmlns="http://www.w3.org/2000/svg">
<path d="M17.8125 8.75021C17.8125 10.594 17.1648 12.2838 15.9883 13.5065C14.8844 14.6541 13.3852 15.3127 11.875 15.3127C10.668 15.3127 9.78281 14.9861 9.14922 14.5854L8.4125 17.7151C8.38534 17.836 8.33447 17.9503 8.26285 18.0514C8.19122 18.1525 8.10026 18.2385 7.99522 18.3042C7.89018 18.37 7.77314 18.4142 7.65089 18.4345C7.52863 18.4547 7.40357 18.4505 7.28295 18.4221C7.16232 18.3937 7.04853 18.3417 6.94814 18.269C6.84775 18.1964 6.76276 18.1045 6.69809 17.9988C6.63342 17.8931 6.59035 17.7756 6.57136 17.6532C6.55238 17.5307 6.55787 17.4057 6.5875 17.2854L9.0875 6.66037C9.11466 6.53946 9.16553 6.42514 9.23715 6.32401C9.30878 6.22288 9.39974 6.13696 9.50478 6.07121C9.60982 6.00546 9.72686 5.96118 9.84912 5.94095C9.97137 5.92071 10.0964 5.92492 10.2171 5.95332C10.3377 5.98172 10.4515 6.03375 10.5519 6.10641C10.6523 6.17906 10.7372 6.2709 10.8019 6.37661C10.8666 6.48232 10.9097 6.5998 10.9286 6.72226C10.9476 6.84472 10.9421 6.96973 10.9125 7.09005L9.62735 12.5533C9.9 12.8799 10.5594 13.4377 11.875 13.4377C13.8719 13.4377 15.9375 11.6838 15.9375 8.75021C15.9371 7.93559 15.7493 7.13198 15.3888 6.4015C15.0282 5.67102 14.5044 5.03325 13.858 4.5375C13.2116 4.04174 12.4599 3.70128 11.6609 3.54243C10.8619 3.38359 10.0371 3.41061 9.25023 3.62142C8.46336 3.83223 7.7355 4.22117 7.12294 4.75818C6.51038 5.29519 6.02952 5.96587 5.71754 6.71839C5.40556 7.4709 5.27081 8.28508 5.32372 9.09799C5.37662 9.91089 5.61577 10.7007 6.02266 11.4065C6.1375 11.621 6.1644 11.8719 6.09768 12.1059C6.03095 12.3399 5.87583 12.5389 5.6651 12.6606C5.45437 12.7824 5.20456 12.8174 4.96847 12.7583C4.73238 12.6992 4.52853 12.5506 4.4 12.344C3.84892 11.3892 3.52484 10.3204 3.45285 9.22039C3.38085 8.12033 3.56286 7.01846 3.9848 6C4.40674 4.98154 5.05729 4.07379 5.88615 3.34695C6.71501 2.62012 7.69995 2.09368 8.7648 1.80837C9.82964 1.52306 10.9458 1.48651 12.0271 1.70155C13.1083 1.9166 14.1256 2.37748 15.0002 3.04853C15.8748 3.71959 16.5834 4.58285 17.071 5.57152C17.5587 6.5602 17.8124 7.64781 17.8125 8.75021Z" fill="#020714"/>
</svg>
