<svg width="20" height="20" viewBox="0 0 20 20" fill="none" xmlns="http://www.w3.org/2000/svg">
<path d="M17.0404 16.3719L12.2747 8.8875L16.9404 3.75547C17.1041 3.57093 17.1885 3.32929 17.1752 3.08296C17.162 2.83662 17.0521 2.60543 16.8696 2.43952C16.687 2.27361 16.4464 2.18634 16.1999 2.19664C15.9534 2.20693 15.721 2.31397 15.5529 2.49453L11.2349 7.24766L8.29037 2.62188C8.20575 2.48883 8.08894 2.37927 7.95074 2.30334C7.81254 2.22742 7.65743 2.18757 7.49975 2.1875H3.74975C3.58181 2.18758 3.41697 2.23276 3.27247 2.31834C3.12797 2.40391 3.00911 2.52673 2.92831 2.67395C2.84752 2.82118 2.80775 2.9874 2.81317 3.15525C2.81859 3.32311 2.869 3.48642 2.95912 3.62812L7.72475 11.1125L3.056 16.2445C2.97147 16.3353 2.9058 16.442 2.8628 16.5584C2.8198 16.6748 2.80033 16.7985 2.8055 16.9225C2.81068 17.0464 2.84041 17.1681 2.89297 17.2805C2.94552 17.3929 3.01986 17.4937 3.11167 17.5771C3.20348 17.6606 3.31094 17.7249 3.42782 17.7665C3.5447 17.8081 3.66867 17.8261 3.79255 17.8195C3.91643 17.8128 4.03776 17.7816 4.1495 17.7277C4.26124 17.6738 4.36117 17.5983 4.4435 17.5055L8.76459 12.7523L11.7091 17.3781C11.7937 17.5112 11.9106 17.6207 12.0488 17.6967C12.187 17.7726 12.3421 17.8124 12.4997 17.8125H16.2497C16.4177 17.8124 16.5825 17.7672 16.727 17.6817C16.8715 17.5961 16.9904 17.4733 17.0712 17.326C17.152 17.1788 17.1917 17.0126 17.1863 16.8447C17.1809 16.6769 17.1305 16.5136 17.0404 16.3719ZM13.0146 15.9375L5.45756 4.0625H6.9849L14.5419 15.9375H13.0146Z" fill="white"/>
</svg>
