<svg width="16" height="17" viewBox="0 0 16 17" fill="none" xmlns="http://www.w3.org/2000/svg">
<path d="M14.25 8.15576C14.25 8.35467 14.171 8.54544 14.0303 8.68609C13.8897 8.82674 13.6989 8.90576 13.5 8.90576H8.75V13.6558C8.75 13.8547 8.67098 14.0454 8.53033 14.1861C8.38968 14.3267 8.19891 14.4058 8 14.4058C7.80109 14.4058 7.61032 14.3267 7.46967 14.1861C7.32902 14.0454 7.25 13.8547 7.25 13.6558V8.90576H2.5C2.30109 8.90576 2.11032 8.82674 1.96967 8.68609C1.82902 8.54544 1.75 8.35467 1.75 8.15576C1.75 7.95685 1.82902 7.76608 1.96967 7.62543C2.11032 7.48478 2.30109 7.40576 2.5 7.40576H7.25V2.65576C7.25 2.45685 7.32902 2.26608 7.46967 2.12543C7.61032 1.98478 7.80109 1.90576 8 1.90576C8.19891 1.90576 8.38968 1.98478 8.53033 2.12543C8.67098 2.26608 8.75 2.45685 8.75 2.65576V7.40576H13.5C13.6989 7.40576 13.8897 7.48478 14.0303 7.62543C14.171 7.76608 14.25 7.95685 14.25 8.15576Z" fill="black"/>
</svg>
