<svg width="16" height="17" viewBox="0 0 16 17" fill="none" xmlns="http://www.w3.org/2000/svg">
<path d="M12.75 4.53003V11.03C12.75 11.2289 12.671 11.4197 12.5303 11.5604C12.3896 11.701 12.1989 11.78 12 11.78C11.8011 11.78 11.6103 11.701 11.4696 11.5604C11.329 11.4197 11.25 11.2289 11.25 11.03V6.34253L4.5306 13.0607C4.3897 13.2016 4.19861 13.2807 3.99935 13.2807C3.80009 13.2807 3.60899 13.2016 3.4681 13.0607C3.3272 12.9198 3.24805 12.7287 3.24805 12.5294C3.24805 12.3301 3.3272 12.1391 3.4681 11.9982L10.1875 5.28003H5.49997C5.30106 5.28003 5.11029 5.20101 4.96964 5.06036C4.82899 4.91971 4.74997 4.72894 4.74997 4.53003C4.74997 4.33112 4.82899 4.14035 4.96964 3.9997C5.11029 3.85905 5.30106 3.78003 5.49997 3.78003H12C12.1989 3.78003 12.3896 3.85905 12.5303 3.9997C12.671 4.14035 12.75 4.33112 12.75 4.53003Z" fill="white"/>
</svg>
