<svg width="20" height="21" viewBox="0 0 20 21" fill="none" xmlns="http://www.w3.org/2000/svg">
<path d="M17.8125 3.7801V7.5301C17.8125 7.77874 17.7137 8.0172 17.5379 8.19301C17.3621 8.36883 17.1236 8.4676 16.875 8.4676H13.125C12.8764 8.4676 12.6379 8.36883 12.4621 8.19301C12.2863 8.0172 12.1875 7.77874 12.1875 7.5301C12.1875 7.28146 12.2863 7.043 12.4621 6.86719C12.6379 6.69137 12.8764 6.5926 13.125 6.5926H14.6094L14 5.98323C12.8967 4.87449 11.3985 4.24901 9.83437 4.24416H9.80078C8.25063 4.24077 6.76146 4.84783 5.65547 5.93401C5.47769 6.10785 5.23814 6.20395 4.9895 6.20116C4.74087 6.19838 4.50353 6.09694 4.32969 5.91916C4.15585 5.74139 4.05975 5.50183 4.06253 5.2532C4.06531 5.00457 4.16675 4.76722 4.34453 4.59338C5.80095 3.16327 7.76196 2.36421 9.80313 2.36916H9.84375C11.9029 2.37478 13.8756 3.19785 15.3281 4.65744L15.9375 5.26448V3.7801C15.9375 3.53146 16.0363 3.293 16.2121 3.11719C16.3879 2.94137 16.6264 2.8426 16.875 2.8426C17.1236 2.8426 17.3621 2.94137 17.5379 3.11719C17.7137 3.293 17.8125 3.53146 17.8125 3.7801ZM14.3445 14.1262C13.238 15.2129 11.7478 15.82 10.1969 15.816H10.1633C8.59916 15.8112 7.10092 15.1857 5.99766 14.077L5.39062 13.4676H6.875C7.12364 13.4676 7.3621 13.3688 7.53791 13.193C7.71373 13.0172 7.8125 12.7787 7.8125 12.5301C7.8125 12.2815 7.71373 12.043 7.53791 11.8672C7.3621 11.6914 7.12364 11.5926 6.875 11.5926H3.125C2.87636 11.5926 2.6379 11.6914 2.46209 11.8672C2.28627 12.043 2.1875 12.2815 2.1875 12.5301V16.2801C2.1875 16.5287 2.28627 16.7672 2.46209 16.943C2.6379 17.1188 2.87636 17.2176 3.125 17.2176C3.37364 17.2176 3.6121 17.1188 3.78791 16.943C3.96373 16.7672 4.0625 16.5287 4.0625 16.2801V14.7957L4.67188 15.4051C6.12478 16.8638 8.09741 17.686 10.1562 17.691H10.2C12.2412 17.696 14.2022 16.8969 15.6586 15.4668C15.7466 15.3807 15.8168 15.2782 15.8652 15.165C15.9136 15.0517 15.9392 14.9301 15.9406 14.807C15.942 14.6839 15.9191 14.5617 15.8733 14.4474C15.8274 14.3332 15.7595 14.2291 15.6734 14.141C15.5874 14.053 15.4848 13.9828 15.3716 13.9344C15.2584 13.886 15.1367 13.8604 15.0136 13.859C14.8905 13.8577 14.7683 13.8805 14.6541 13.9264C14.5398 13.9722 14.4357 14.0401 14.3477 14.1262H14.3445Z" fill="black"/>
</svg>
