<svg width="20" height="21" viewBox="0 0 20 21" fill="none" xmlns="http://www.w3.org/2000/svg">
<path d="M19.6096 9.64956C19.5807 9.58628 18.8963 8.06675 17.3846 6.55503C15.3619 4.5355 12.8127 3.46753 10.0002 3.46753C7.18769 3.46753 4.63847 4.5355 2.61815 6.55503C1.10643 8.06675 0.42206 9.58628 0.39081 9.64956C0.337882 9.76956 0.310547 9.89927 0.310547 10.0304C0.310547 10.1616 0.337882 10.2913 0.39081 10.4113C0.419716 10.4753 1.10409 11.9941 2.61659 13.5058C4.63847 15.5253 7.18769 16.5925 10.0002 16.5925C12.8127 16.5925 15.3619 15.5253 17.3814 13.5058C18.8939 11.9941 19.5783 10.4753 19.6072 10.4113C19.6605 10.2914 19.6882 10.1618 19.6887 10.0307C19.6891 9.89952 19.6621 9.76972 19.6096 9.64956ZM16.0111 12.2277C14.3338 13.8792 12.3119 14.7175 10.0002 14.7175C7.68847 14.7175 5.66659 13.8792 3.99159 12.2269C3.33249 11.5747 2.76553 10.8356 2.30643 10.03C2.76566 9.22476 3.33261 8.48592 3.99159 7.83394C5.66737 6.18081 7.68847 5.34253 10.0002 5.34253C12.3119 5.34253 14.333 6.18081 16.0088 7.83394C16.6678 8.48586 17.2348 9.22472 17.6939 10.03C17.2348 10.8356 16.6678 11.5747 16.0088 12.2269L16.0111 12.2277ZM10.0002 6.59253C9.32031 6.59253 8.65571 6.79414 8.09041 7.17185C7.52512 7.54957 7.08453 8.08643 6.82435 8.71455C6.56417 9.34268 6.4961 10.0338 6.62874 10.7007C6.76137 11.3675 7.08876 11.98 7.56951 12.4607C8.05025 12.9415 8.66275 13.2688 9.32956 13.4015C9.99637 13.5341 10.6875 13.466 11.3157 13.2059C11.9438 12.9457 12.4806 12.5051 12.8584 11.9398C13.2361 11.3745 13.4377 10.7099 13.4377 10.03C13.4367 9.11866 13.0742 8.24492 12.4297 7.60049C11.7853 6.95606 10.9115 6.59356 10.0002 6.59253ZM10.0002 11.5925C9.69115 11.5925 9.38906 11.5009 9.13211 11.3292C8.87515 11.1575 8.67488 10.9135 8.55662 10.628C8.43836 10.3425 8.40742 10.0283 8.46771 9.7252C8.528 9.42211 8.67681 9.14369 8.89533 8.92517C9.11385 8.70666 9.39226 8.55784 9.69536 8.49755C9.99845 8.43726 10.3126 8.46821 10.5981 8.58647C10.8836 8.70473 11.1277 8.905 11.2994 9.16195C11.471 9.4189 11.5627 9.721 11.5627 10.03C11.5627 10.4444 11.3981 10.8419 11.105 11.1349C10.812 11.4279 10.4146 11.5925 10.0002 11.5925Z" fill="#020714"/>
</svg>
