<svg width="14" height="15" viewBox="0 0 14 15" fill="none" xmlns="http://www.w3.org/2000/svg">
<path d="M13.2896 5.78009C13.2217 5.5708 13.0934 5.38634 12.9207 5.25005C12.748 5.11377 12.5387 5.03177 12.3194 5.01446L9.22464 4.76454L8.03027 1.87649C7.94633 1.67238 7.80362 1.49781 7.62028 1.37496C7.43693 1.25211 7.2212 1.18652 7.0005 1.18652C6.7798 1.18652 6.56408 1.25211 6.38073 1.37496C6.19738 1.49781 6.05467 1.67238 5.97074 1.87649L4.77745 4.76509L1.68269 5.01446C1.46297 5.03258 1.2535 5.11524 1.08062 5.25205C0.907733 5.38886 0.779141 5.57372 0.711003 5.78339C0.642864 5.99307 0.638219 6.21821 0.697651 6.43051C0.757082 6.64282 0.877939 6.83282 1.04503 6.97665L3.40644 9.01321L2.68456 12.0593C2.63191 12.2741 2.64437 12.4996 2.72034 12.7073C2.79632 12.915 2.93238 13.0953 3.11119 13.2254C3.29 13.3555 3.50349 13.4294 3.72445 13.4377C3.94542 13.4461 4.16387 13.3885 4.35199 13.2723L7.0005 11.642L9.64902 13.2723C9.83709 13.3877 10.0552 13.4447 10.2757 13.4362C10.4962 13.4276 10.7092 13.3538 10.8877 13.2241C11.0662 13.0944 11.2023 12.9146 11.2786 12.7076C11.3549 12.5005 11.3681 12.2755 11.3164 12.0609L10.5946 9.01485L12.956 6.97829C13.1241 6.83411 13.2455 6.64324 13.3049 6.4299C13.3643 6.21656 13.359 5.99038 13.2896 5.78009ZM9.43574 8.2793C9.34468 8.35781 9.27694 8.45981 9.23991 8.57419C9.20287 8.68857 9.19797 8.81092 9.22574 8.9279L9.93066 11.9051L7.34449 10.3148C7.24105 10.2511 7.12197 10.2174 7.0005 10.2174C6.87904 10.2174 6.75996 10.2511 6.65652 10.3148L4.07035 11.9051L4.77527 8.93009C4.80303 8.81311 4.79813 8.69076 4.7611 8.57638C4.72407 8.462 4.65632 8.35999 4.56527 8.28149L2.25363 6.2854L5.28331 6.04095C5.40388 6.03126 5.51942 5.98844 5.61718 5.91722C5.71494 5.846 5.79112 5.74914 5.8373 5.63735L7.0005 2.82095L8.1637 5.63735C8.20988 5.74914 8.28606 5.846 8.38382 5.91722C8.48158 5.98844 8.59712 6.03126 8.71769 6.04095L11.7474 6.2854L9.43574 8.2793Z" fill="#D9651D"/>
</svg>
