<svg width="14" height="13" viewBox="0 0 14 13" fill="none" xmlns="http://www.w3.org/2000/svg">
<path d="M12.8132 5.811L10.3523 7.93451L11.102 11.1102C11.1434 11.2826 11.1327 11.4634 11.0714 11.6297C11.0101 11.7961 10.9008 11.9405 10.7575 12.0448C10.6141 12.1491 10.443 12.2085 10.2659 12.2156C10.0887 12.2228 9.91344 12.1772 9.76217 12.0848L7.00045 10.3851L4.23709 12.0848C4.08584 12.1767 3.91078 12.2218 3.73394 12.2144C3.5571 12.207 3.38639 12.1475 3.24331 12.0433C3.10024 11.9391 2.99119 11.7949 2.9299 11.6289C2.86861 11.4628 2.85782 11.2824 2.89889 11.1102L3.65139 7.93451L1.19045 5.811C1.05663 5.69534 0.959851 5.54282 0.912195 5.37249C0.864539 5.20215 0.868121 5.02155 0.922494 4.85324C0.976867 4.68493 1.07962 4.53637 1.21792 4.4261C1.35623 4.31584 1.52395 4.24877 1.70014 4.23326L4.9267 3.97295L6.17139 0.960764C6.23876 0.796601 6.35343 0.656181 6.50081 0.557355C6.6482 0.458529 6.82164 0.405762 6.99909 0.405762C7.17654 0.405762 7.34998 0.458529 7.49736 0.557355C7.64474 0.656181 7.75941 0.796601 7.82678 0.960764L9.07092 3.97295L12.2975 4.23326C12.474 4.2482 12.6422 4.31489 12.781 4.425C12.9199 4.53511 13.0231 4.68373 13.0778 4.85225C13.1325 5.02076 13.1363 5.20168 13.0886 5.37232C13.041 5.54297 12.944 5.69576 12.8099 5.81155L12.8132 5.811Z" fill="#D9651D"/>
</svg>
