<svg width="20" height="20" viewBox="0 0 20 20" fill="none" xmlns="http://www.w3.org/2000/svg">
<path d="M17.8125 3.74983V7.49983C17.8125 7.74847 17.7137 7.98693 17.5379 8.16274C17.3621 8.33856 17.1236 8.43733 16.875 8.43733H13.125C12.8764 8.43733 12.6379 8.33856 12.4621 8.16274C12.2863 7.98693 12.1875 7.74847 12.1875 7.49983C12.1875 7.25119 12.2863 7.01273 12.4621 6.83691C12.6379 6.6611 12.8764 6.56233 13.125 6.56233H14.6094L14 5.95295C12.8967 4.84422 11.3985 4.21873 9.83437 4.21389H9.80078C8.25063 4.2105 6.76146 4.81756 5.65547 5.90373C5.47769 6.07757 5.23814 6.17367 4.9895 6.17089C4.74087 6.16811 4.50353 6.06667 4.32969 5.88889C4.15585 5.71111 4.05975 5.47156 4.06253 5.22293C4.06531 4.97429 4.16675 4.73695 4.34453 4.56311C5.80095 3.13299 7.76196 2.33394 9.80313 2.33889H9.84375C11.9029 2.3445 13.8756 3.16758 15.3281 4.62717L15.9375 5.2342V3.74983C15.9375 3.50119 16.0363 3.26273 16.2121 3.08691C16.3879 2.9111 16.6264 2.81233 16.875 2.81233C17.1236 2.81233 17.3621 2.9111 17.5379 3.08691C17.7137 3.26273 17.8125 3.50119 17.8125 3.74983ZM14.3445 14.0959C13.238 15.1827 11.7478 15.7898 10.1969 15.7858H10.1633C8.59916 15.7809 7.10092 15.1554 5.99766 14.0467L5.39062 13.4373H6.875C7.12364 13.4373 7.3621 13.3386 7.53791 13.1627C7.71373 12.9869 7.8125 12.7485 7.8125 12.4998C7.8125 12.2512 7.71373 12.0127 7.53791 11.8369C7.3621 11.6611 7.12364 11.5623 6.875 11.5623H3.125C2.87636 11.5623 2.6379 11.6611 2.46209 11.8369C2.28627 12.0127 2.1875 12.2512 2.1875 12.4998V16.2498C2.1875 16.4985 2.28627 16.7369 2.46209 16.9127C2.6379 17.0886 2.87636 17.1873 3.125 17.1873C3.37364 17.1873 3.6121 17.0886 3.78791 16.9127C3.96373 16.7369 4.0625 16.4985 4.0625 16.2498V14.7655L4.67188 15.3748C6.12478 16.8336 8.09741 17.6558 10.1562 17.6608H10.2C12.2412 17.6657 14.2022 16.8667 15.6586 15.4365C15.7466 15.3505 15.8168 15.2479 15.8652 15.1347C15.9136 15.0215 15.9392 14.8998 15.9406 14.7767C15.942 14.6536 15.9191 14.5314 15.8733 14.4172C15.8274 14.3029 15.7595 14.1988 15.6734 14.1108C15.5874 14.0227 15.4848 13.9525 15.3716 13.9041C15.2584 13.8558 15.1367 13.8301 15.0136 13.8288C14.8905 13.8274 14.7683 13.8503 14.6541 13.8961C14.5398 13.9419 14.4357 14.0098 14.3477 14.0959H14.3445Z" fill="black"/>
</svg>
