<svg width="14" height="15" viewBox="0 0 14 15" fill="none" xmlns="http://www.w3.org/2000/svg">
<path d="M12.8132 6.78073L10.3523 8.90424L11.102 12.0799C11.1434 12.2523 11.1327 12.4331 11.0714 12.5995C11.0101 12.7658 10.9008 12.9102 10.7575 13.0145C10.6141 13.1188 10.443 13.1783 10.2659 13.1854C10.0887 13.1925 9.91344 13.1469 9.76217 13.0545L7.00045 11.3548L4.23709 13.0545C4.08584 13.1464 3.91078 13.1915 3.73394 13.1841C3.5571 13.1768 3.38639 13.1172 3.24331 13.0131C3.10024 12.9089 2.99119 12.7647 2.9299 12.5986C2.86861 12.4326 2.85782 12.2521 2.89889 12.0799L3.65139 8.90424L1.19045 6.78073C1.05663 6.66507 0.959851 6.51255 0.912195 6.34221C0.864539 6.17188 0.868121 5.99128 0.922494 5.82297C0.976867 5.65465 1.07962 5.50609 1.21792 5.39583C1.35623 5.28557 1.52395 5.2185 1.70014 5.20299L4.9267 4.94268L6.17139 1.93049C6.23876 1.76633 6.35343 1.62591 6.50081 1.52708C6.6482 1.42826 6.82164 1.37549 6.99909 1.37549C7.17654 1.37549 7.34998 1.42826 7.49736 1.52708C7.64474 1.62591 7.75941 1.76633 7.82678 1.93049L9.07092 4.94268L12.2975 5.20299C12.474 5.21792 12.6422 5.28462 12.781 5.39473C12.9199 5.50484 13.0231 5.65346 13.0778 5.82197C13.1325 5.99049 13.1363 6.1714 13.0886 6.34205C13.041 6.51269 12.944 6.66548 12.8099 6.78127L12.8132 6.78073Z" fill="#D9651D"/>
</svg>
