<svg width="14" height="15" viewBox="0 0 14 15" fill="none" xmlns="http://www.w3.org/2000/svg">
<path d="M13.2896 5.74981C13.2217 5.54053 13.0934 5.35607 12.9207 5.21978C12.748 5.08349 12.5387 5.0015 12.3194 4.98419L9.22464 4.73427L8.03027 1.84622C7.94633 1.6421 7.80362 1.46754 7.62028 1.34469C7.43693 1.22184 7.2212 1.15625 7.0005 1.15625C6.7798 1.15625 6.56408 1.22184 6.38073 1.34469C6.19738 1.46754 6.05467 1.6421 5.97074 1.84622L4.77745 4.73481L1.68269 4.98419C1.46297 5.00231 1.2535 5.08497 1.08062 5.22178C0.907733 5.35859 0.779141 5.54345 0.711003 5.75312C0.642864 5.96279 0.638219 6.18793 0.697651 6.40024C0.757082 6.61255 0.877939 6.80255 1.04503 6.94637L3.40644 8.98294L2.68456 12.029C2.63191 12.2438 2.64437 12.4694 2.72034 12.677C2.79632 12.8847 2.93238 13.065 3.11119 13.1951C3.29 13.3252 3.50349 13.3991 3.72445 13.4075C3.94542 13.4158 4.16387 13.3582 4.35199 13.242L7.0005 11.6118L9.64902 13.242C9.83709 13.3574 10.0552 13.4145 10.2757 13.4059C10.4962 13.3973 10.7092 13.3235 10.8877 13.1938C11.0662 13.0641 11.2023 12.8844 11.2786 12.6773C11.3549 12.4703 11.3681 12.2452 11.3164 12.0307L10.5946 8.98458L12.956 6.94802C13.1241 6.80384 13.2455 6.61297 13.3049 6.39963C13.3643 6.18629 13.359 5.96011 13.2896 5.74981ZM9.43574 8.24903C9.34468 8.32753 9.27694 8.42954 9.23991 8.54392C9.20287 8.6583 9.19797 8.78065 9.22574 8.89762L9.93066 11.8748L7.34449 10.2845C7.24105 10.2208 7.12197 10.1871 7.0005 10.1871C6.87904 10.1871 6.75996 10.2208 6.65652 10.2845L4.07035 11.8748L4.77527 8.89981C4.80303 8.78284 4.79813 8.66048 4.7611 8.54611C4.72407 8.43173 4.65632 8.32972 4.56527 8.25122L2.25363 6.25513L5.28331 6.01067C5.40388 6.00099 5.51942 5.95817 5.61718 5.88695C5.71494 5.81572 5.79112 5.71887 5.8373 5.60708L7.0005 2.79067L8.1637 5.60708C8.20988 5.71887 8.28606 5.81572 8.38382 5.88695C8.48158 5.95817 8.59712 6.00099 8.71769 6.01067L11.7474 6.25513L9.43574 8.24903Z" fill="#D9651D"/>
</svg>
