<svg width="32" height="32" viewBox="0 0 32 32" fill="none" xmlns="http://www.w3.org/2000/svg">
<path d="M31.3925 12.9425L29.6425 8.5675C29.458 8.10344 29.1379 7.70571 28.7241 7.42612C28.3103 7.14654 27.8219 6.99805 27.3225 7H24V6.5C24 6.10218 23.842 5.72064 23.5607 5.43934C23.2794 5.15804 22.8978 5 22.5 5H3.5C2.83696 5 2.20107 5.26339 1.73223 5.73223C1.26339 6.20107 1 6.83696 1 7.5V21.5C1 22.163 1.26339 22.7989 1.73223 23.2678C2.20107 23.7366 2.83696 24 3.5 24H5.2575C5.56775 24.8773 6.14232 25.6368 6.9021 26.174C7.66187 26.7111 8.5695 26.9996 9.5 26.9996C10.4305 26.9996 11.3381 26.7111 12.0979 26.174C12.8577 25.6368 13.4323 24.8773 13.7425 24H19.2575C19.5677 24.8773 20.1423 25.6368 20.9021 26.174C21.6619 26.7111 22.5695 26.9996 23.5 26.9996C24.4305 26.9996 25.3381 26.7111 26.0979 26.174C26.8577 25.6368 27.4323 24.8773 27.7425 24H29C29.663 24 30.2989 23.7366 30.7678 23.2678C31.2366 22.7989 31.5 22.163 31.5 21.5V13.5C31.4838 13.3109 31.4477 13.1241 31.3925 12.9425ZM24 10H26.985L27.785 12H24V10ZM9.5 24C9.20333 24 8.91332 23.912 8.66665 23.7472C8.41997 23.5824 8.22771 23.3481 8.11418 23.074C8.00065 22.7999 7.97094 22.4983 8.02882 22.2074C8.0867 21.9164 8.22956 21.6491 8.43934 21.4393C8.64912 21.2296 8.91639 21.0867 9.20736 21.0288C9.49834 20.9709 9.79994 21.0007 10.074 21.1142C10.3481 21.2277 10.5824 21.42 10.7472 21.6666C10.912 21.9133 11 22.2033 11 22.5C11 22.8978 10.842 23.2794 10.5607 23.5607C10.2794 23.842 9.89782 24 9.5 24ZM21 18.76C20.1947 19.3013 19.584 20.0863 19.2575 21H13.7425C13.4323 20.1227 12.8577 19.3632 12.0979 18.826C11.3381 18.2889 10.4305 18.0004 9.5 18.0004C8.5695 18.0004 7.66187 18.2889 6.9021 18.826C6.14232 19.3632 5.56775 20.1227 5.2575 21H4V16H21V18.76ZM21 13H4V8H21V13ZM23.5 24C23.2033 24 22.9133 23.912 22.6666 23.7472C22.42 23.5824 22.2277 23.3481 22.1142 23.074C22.0007 22.7999 21.9709 22.4983 22.0288 22.2074C22.0867 21.9164 22.2296 21.6491 22.4393 21.4393C22.6491 21.2296 22.9164 21.0867 23.2074 21.0288C23.4983 20.9709 23.7999 21.0007 24.074 21.1142C24.3481 21.2277 24.5824 21.42 24.7472 21.6666C24.912 21.9133 25 22.2033 25 22.5C25 22.8978 24.842 23.2794 24.5607 23.5607C24.2794 23.842 23.8978 24 23.5 24ZM28.5 21H27.7425C27.4595 20.204 26.9586 19.5035 26.297 18.9782C25.6353 18.4528 24.8394 18.1239 24 18.0287V15H28.5V21Z" fill="black"/>
</svg>
